<?xml version="1.0" encoding="UTF-8" standalone="no"?>
<svg
   viewBox="-178.3 -167.1 1280 640"
   version="1.1"
   id="svg6"
   sodipodi:docname="media.svg"
   width="1280"
   height="640"
   inkscape:version="1.2.2 (b0a84865, 2022-12-01)"
   inkscape:export-filename="media.png"
   inkscape:export-xdpi="96"
   inkscape:export-ydpi="96"
   xmlns:inkscape="http://www.inkscape.org/namespaces/inkscape"
   xmlns:sodipodi="http://sodipodi.sourceforge.net/DTD/sodipodi-0.dtd"
   xmlns="http://www.w3.org/2000/svg"
   xmlns:svg="http://www.w3.org/2000/svg">
  <defs
     id="defs10" />
  <sodipodi:namedview
     id="namedview8"
     pagecolor="#505050"
     bordercolor="#eeeeee"
     borderopacity="1"
     inkscape:showpageshadow="false"
     inkscape:pageopacity="0"
     inkscape:pagecheckerboard="false"
     inkscape:deskcolor="#505050"
     showgrid="false"
     borderlayer="true"
     inkscape:zoom="0.55292921"
     inkscape:cx="471.12722"
     inkscape:cy="300.21926"
     inkscape:window-width="1512"
     inkscape:window-height="828"
     inkscape:window-x="0"
     inkscape:window-y="38"
     inkscape:window-maximized="1"
     inkscape:current-layer="svg6" />
  <path
     d="m 219.85,233.8 c 4,0 7.3,1.4 10.1,4.2 2.8,2.8 4.2,6.2 4.2,10.1 v 49.6 h -50.7 c -4,0 -7.3,-1.4 -10.1,-4.2 -2.8,-2.8 -4.2,-6.2 -4.2,-10.1 v -23.6 h 53.1 v -11.7 c 0,-0.7 -0.2,-1.2 -0.7,-1.7 -0.5,-0.5 -1,-0.7 -1.7,-0.7 h -50.7 v -11.9 z m 2.4,52 v -14.1 h -41.2 v 11.7 c 0,0.7 0.2,1.2 0.7,1.7 0.5,0.5 1,0.7 1.7,0.7 z m 114.7,-52 h 12.7 l -24,63.9 h -9.7 l -21.5,-47.5 -20.3,47.5 -0.2,-0.1 0.1,0.1 h -9.6 l -25.1,-63.9 h 12.6 l 17.3,42.4 18.4,-42.4 h 13.6 l 19.5,42.4 z m 67.2,0 c 4,0 7.3,1.4 10.1,4.2 2.8,2.8 4.2,6.2 4.2,10.1 v 23.6 h -53.1 v 11.7 c 0,0.7 0.2,1.2 0.7,1.7 0.5,0.5 1,0.7 1.7,0.7 h 50.7 v 11.9 h -50.7 c -4,0 -7.3,-1.4 -10.1,-4.2 -2.8,-2.8 -4.2,-6.2 -4.2,-10.1 v -35.3 c 0,-4 1.4,-7.3 4.2,-10.1 2.8,-2.8 6.2,-4.2 10.1,-4.2 z m -38.8,26 h 41.2 v -11.7 c 0,-0.7 -0.2,-1.2 -0.7,-1.7 -0.5,-0.5 -1,-0.7 -1.7,-0.7 h -36.4 c -0.7,0 -1.2,0.2 -1.7,0.7 -0.5,0.5 -0.7,1 -0.7,1.7 z m 129,-11.6 v 2.4 h -11.9 v -2.4 c 0,-0.7 -0.2,-1.2 -0.7,-1.7 -0.5,-0.5 -1,-0.7 -1.7,-0.7 h -36.4 c -0.7,0 -1.2,0.2 -1.7,0.7 -0.5,0.5 -0.7,1 -0.7,1.7 v 9.3 c 0,0.7 0.2,1.2 0.7,1.7 0.5,0.5 1,0.7 1.7,0.7 h 36.4 c 4,0 7.3,1.4 10.1,4.2 2.8,2.8 4.2,6.2 4.2,10.1 v 9.3 c 0,4 -1.4,7.3 -4.2,10.1 -2.8,2.8 -6.2,4.2 -10.1,4.2 h -36.4 c -4,0 -7.3,-1.4 -10.1,-4.2 -2.8,-2.8 -4.2,-6.2 -4.2,-10.1 v -2.4 h 11.9 v 2.4 c 0,0.7 0.2,1.2 0.7,1.7 0.5,0.5 1,0.7 1.7,0.7 h 36.4 c 0.7,0 1.2,-0.2 1.7,-0.7 0.5,-0.5 0.7,-1 0.7,-1.7 v -9.3 c 0,-0.7 -0.2,-1.2 -0.7,-1.7 -0.5,-0.5 -1,-0.7 -1.7,-0.7 h -36.4 c -4,0 -7.3,-1.4 -10.1,-4.2 -2.8,-2.8 -4.2,-6.2 -4.2,-10.1 v -9.3 c 0,-4 1.4,-7.3 4.2,-10.1 2.8,-2.8 6.2,-4.2 10.1,-4.2 h 36.4 c 4,0 7.3,1.4 10.1,4.2 2.8,2.7 4.2,6.1 4.2,10.1 z m 25.2,-14.4 h 36.4 c 4,0 7.3,1.4 10.1,4.2 2.8,2.8 4.2,6.2 4.2,10.1 v 35.3 c 0,4 -1.4,7.3 -4.2,10.1 -2.8,2.8 -6.2,4.2 -10.1,4.2 h -36.4 c -4,0 -7.3,-1.4 -10.1,-4.2 -2.8,-2.8 -4.2,-6.2 -4.2,-10.1 v -35.3 c 0,-4 1.4,-7.3 4.2,-10.1 2.8,-2.8 6.2,-4.2 10.1,-4.2 z m 36.4,11.9 h -36.4 c -0.7,0 -1.2,0.2 -1.7,0.7 -0.5,0.5 -0.7,1 -0.7,1.7 v 35.3 c 0,0.7 0.2,1.2 0.7,1.7 0.5,0.5 1,0.7 1.7,0.7 h 36.4 c 0.7,0 1.2,-0.2 1.7,-0.7 0.5,-0.5 0.7,-1 0.7,-1.7 v -35.3 c 0,-0.7 -0.2,-1.2 -0.7,-1.7 -0.5,-0.4 -1,-0.7 -1.7,-0.7 z m 107.5,-11.9 c 4,0 7.3,1.4 10.1,4.2 2.8,2.8 4.2,6.2 4.2,10.1 v 49.6 h -11.8 v -49.6 c 0,-0.7 -0.2,-1.2 -0.7,-1.7 -0.5,-0.5 -1.1,-0.7 -1.8,-0.7 h -25.2 c -0.7,0 -1.2,0.2 -1.7,0.7 -0.5,0.5 -0.7,1 -0.7,1.7 v 49.6 h -11.9 v -49.6 c 0,-0.7 -0.2,-1.2 -0.7,-1.7 -0.5,-0.5 -1,-0.7 -1.7,-0.7 h -25.3 c -0.7,0 -1.2,0.2 -1.7,0.7 -0.5,0.5 -0.7,1 -0.7,1.7 v 49.6 h -11.9 v -63.9 z m 76.5,0 c 4,0 7.3,1.4 10.1,4.2 2.8,2.8 4.2,6.2 4.2,10.1 v 23.6 h -53.1 v 11.7 c 0,0.7 0.2,1.2 0.7,1.7 0.5,0.5 1,0.7 1.7,0.7 h 50.7 v 11.9 h -50.7 c -4,0 -7.3,-1.4 -10.1,-4.2 -2.8,-2.8 -4.2,-6.2 -4.2,-10.1 v -35.3 c 0,-4 1.4,-7.3 4.2,-10.1 2.8,-2.8 6.2,-4.2 10.1,-4.2 z m -38.8,26 h 41.2 v -11.7 c 0,-0.7 -0.2,-1.2 -0.7,-1.7 -0.5,-0.5 -1,-0.7 -1.7,-0.7 h -36.4 c -0.7,0 -1.2,0.2 -1.7,0.7 -0.5,0.5 -0.7,1 -0.7,1.7 z"
     fill="#494368"
     id="path2"
     style="fill:#50799f;fill-opacity:0.97647059" />
  <path
     fill="#fc60a8"
     d="M 754.15,20.600003 604.15,-117 l -21.1,23.000003 125,114.6 h -492.7 l 125,-114.7 -21.1,-23.000003 -150,137.700003 h -0.1 V 111.3 c 0,41 39.5,74.4 88,74.4 h 92.5 c 48.5,0 88,-33.4 88,-74.4 V 51.700003 h 48 V 111.3 c 0,41 39.5,74.4 88,74.4 h 92.5 c 48.5,0 88,-33.4 88,-74.4 z"
     id="path4"
     style="fill:#75aadb;fill-opacity:1" />
  <g
     id="g6221"
     transform="translate(1.58193)">
    <g
       id="g2001"
       transform="translate(158.61807,319.99913)">
	<path
   fill-rule="evenodd"
   clip-rule="evenodd"
   fill="#74aadb"
   d="M 56,54.4 V 1.5 C 27.9,3.5 5.6,26.2 4.1,54.4 Z"
   id="path1993" />

	<path
   fill-rule="evenodd"
   clip-rule="evenodd"
   fill="#74aadb"
   d="m 63,54.4 h 52.9 C 114.4,25.9 91.5,3 63,1.5 Z"
   id="path1995" />

	<path
   fill-rule="evenodd"
   clip-rule="evenodd"
   fill="#74aadb"
   d="M 56,61.4 H 4.2 c 2,27.7 24.1,49.9 51.8,51.8 z"
   id="path1997" />

	<path
   fill-rule="evenodd"
   clip-rule="evenodd"
   fill="#74aadb"
   d="m 63,61.4 v 51.9 c 28.2,-1.5 50.9,-23.8 52.8,-51.9 z"
   id="path1999" />

</g>
    <path
       fill="#4f789e"
       d="m 744.71807,342.99913 h 2 v -4.4 h 1.4 l 2.6,4.4 h 2.1 l -2.8,-4.5 c 0.7,-0.1 1.3,-0.4 1.8,-0.8 0.5,-0.5 0.7,-1.2 0.7,-2.1 0,-1 -0.3,-1.8 -0.9,-2.4 -0.6,-0.6 -1.6,-0.8 -2.8,-0.8 h -4.1 z m 1.9,-8.9 h 1.4 c 0.3,0 0.6,0 0.9,0 0.3,0 0.6,0.1 0.8,0.2 0.2,0.1 0.4,0.2 0.6,0.5 0.2,0.2 0.2,0.5 0.2,0.8 0,0.3 -0.1,0.6 -0.2,0.8 -0.2,0.2 -0.3,0.4 -0.6,0.5 -0.2,0.1 -0.5,0.2 -0.8,0.2 -0.3,0 -0.6,0 -0.9,0 h -1.4 z m -6.9,7.3 c 0.5,1.1 1.2,2.1 2,3 0.8,0.8 1.8,1.5 2.9,2 1.1,0.5 2.3,0.7 3.6,0.7 1.3,0 2.5,-0.2 3.6,-0.7 1.1,-0.5 2.1,-1.2 3,-2 0.8,-0.8 1.5,-1.8 2,-3 0.5,-1.1 0.7,-2.3 0.7,-3.6 0,-1.3 -0.2,-2.5 -0.7,-3.6 -0.5,-1.1 -1.2,-2.1 -2,-2.9 -0.8,-0.8 -1.8,-1.5 -3,-2 -1.1,-0.5 -2.3,-0.7 -3.6,-0.7 -1.3,0 -2.5,0.2 -3.6,0.7 -1.1,0.5 -2.1,1.2 -2.9,2 -0.8,0.8 -1.5,1.8 -2,2.9 -0.5,1.1 -0.7,2.3 -0.7,3.6 0,1.3 0.2,2.5 0.7,3.6 z m 1.5,-6.6 c 0.4,-0.9 0.9,-1.7 1.6,-2.4 0.7,-0.7 1.5,-1.2 2.4,-1.6 0.9,-0.4 1.9,-0.6 3,-0.6 1,0 2,0.2 3,0.6 0.9,0.4 1.7,0.9 2.4,1.6 0.7,0.7 1.2,1.5 1.6,2.4 0.4,0.9 0.6,1.9 0.6,3 0,1 -0.2,2 -0.6,3 -0.4,0.9 -0.9,1.7 -1.6,2.4 -0.7,0.7 -1.5,1.2 -2.4,1.6 -0.9,0.4 -1.9,0.6 -3,0.6 -1.1,0 -2,-0.2 -3,-0.6 -0.9,-0.4 -1.7,-0.9 -2.4,-1.6 -0.7,-0.7 -1.2,-1.5 -1.6,-2.4 -0.4,-0.9 -0.6,-1.9 -0.6,-3 0,-1.1 0.2,-2.1 0.6,-3 z"
       id="path2003" />
    <path
       fill="#4f789e"
       d="m 373.21807,344.79913 v 13.1 c -5.8,-10.1 -16,-16.6 -29.4,-16.6 -21.3,0 -36.2,16.2 -36.2,38.1 0,22.1 14.9,37.9 36.2,37.9 13.4,0 23.7,-6.4 29.4,-16.5 v 42.2 c 0,1.4 1,2.4 2.4,2.4 h 4 c 1.4,0 2.4,-1 2.4,-2.4 v -98.2 c 0,-1.4 -1,-2.4 -2.4,-2.4 h -4 c -1.4,0 -2.4,1 -2.4,2.4 z m -28.5,64 c -17.1,0 -28.6,-12.2 -28.6,-29.4 0,-17.2 11.5,-29.8 28.6,-29.8 17.3,0 28.5,12.5 28.5,29.8 0,17.3 -11.2,29.4 -28.5,29.4 z"
       id="path2005" />
    <path
       fill="#4f789e"
       d="m 457.01807,344.79913 v 42.1 c 0,14.6 -9.9,22.7 -22.7,22.7 -12.6,0 -22.7,-8.2 -22.7,-22.7 v -42.1 c 0,-1.4 -1,-2.4 -2.4,-2.4 h -4 c -1.4,0 -2.4,1 -2.4,2.4 v 43.2 c 0,20.2 14.4,29.3 29.6,29.3 9.8,0 19.2,-3.8 24.6,-12.2 v 8.5 c 0,1.4 1,2.4 2.4,2.4 h 4 c 1.4,0 2.4,-1 2.4,-2.4 v -68.8 c 0,-1.4 -1,-2.4 -2.4,-2.4 h -4 c -1.4,0 -2.4,1 -2.4,2.4 z"
       id="path2007" />
    <path
       fill="#4f789e"
       d="m 550.31807,344.79913 v 13 c -5.8,-10.1 -16,-16.5 -29.4,-16.5 -21.3,0 -36.2,15.8 -36.2,37.9 0,21.9 14.9,38.1 36.2,38.1 13.4,0 23.7,-6.6 29.4,-16.6 v 13 c 0,1.4 1,2.4 2.4,2.4 h 4 c 1.4,0 2.4,-1 2.4,-2.4 v -68.9 c 0,-1.4 -1,-2.4 -2.4,-2.4 h -4 c -1.4,0 -2.4,1 -2.4,2.4 z m -28.5,64 c -17.1,0 -28.6,-12.3 -28.6,-29.6 0,-17.3 11.5,-29.6 28.6,-29.6 17.3,0 28.5,12.3 28.5,29.6 0,17.3 -11.2,29.6 -28.5,29.6 z"
       id="path2009" />
    <path
       fill="#4f789e"
       d="m 588.71807,355.99913 v -11.2 c 0,-1.4 -1,-2.4 -2.4,-2.4 h -4 c -1.4,0 -2.4,1 -2.4,2.4 v 68.8 c 0,1.4 1,2.4 2.4,2.4 h 4 c 1.4,0 2.4,-1 2.4,-2.4 v -39.2 c 0,-16 11.5,-23.5 23.7,-24.6 1.4,-0.2 2.2,-1.1 2.2,-2.6 v -3.5 c 0,-1.6 -0.8,-2.4 -2.4,-2.2 -9.7,0.7 -18.5,5.5 -23.5,14.5 z"
       id="path2011" />
    <path
       fill="#4f789e"
       d="m 663.61807,346.99913 v -2.2 c 0,-1.4 -1,-2.4 -2.4,-2.4 h -16 v -20 c 0,-1.4 -1,-2.4 -2.4,-2.4 h -4 c -1.4,0 -2.4,1 -2.4,2.4 v 20 h -8.2 c -1.4,0 -2.4,1 -2.4,2.4 v 2.2 c 0,1.4 1,2.4 2.4,2.4 h 8.2 v 50.2 c 0,10.4 6.4,16.3 16.5,16.3 h 7.5 c 1.4,0 2.4,-1 2.4,-2.4 v -2.5 c 0,-1.4 -1,-2.4 -2.4,-2.4 h -4.8 c -5.6,0 -10.4,-2.6 -10.4,-10.1 v -49.1 h 16 c 1.4,0 2.4,-0.9 2.4,-2.4 z"
       id="path2013" />
    <path
       fill="#4f789e"
       d="m 711.31807,417.39913 c 22.1,0 37.1,-16.3 37.1,-38.2 0,-22.1 -15,-38.1 -37.1,-38.1 -22.1,0 -37.3,16 -37.3,38.1 0,21.9 15.2,38.2 37.3,38.2 z m 0,-8.6 c -17,0 -28.5,-12.6 -28.5,-29.6 0,-17 11.5,-29.6 28.5,-29.6 17,0 28.2,12.6 28.2,29.6 0,17 -11.3,29.6 -28.2,29.6 z"
       id="path2015" />
  </g>
</svg>
